<?xml version="1.0" encoding="utf-8"?>
<!-- Generator: Adobe Illustrator 17.0.0, SVG Export Plug-In . SVG Version: 6.00 Build 0)  -->
<!DOCTYPE svg PUBLIC "-//W3C//DTD SVG 1.1//EN" "http://www.w3.org/Graphics/SVG/1.1/DTD/svg11.dtd">
<svg version="1.1" id="Layer_1" xmlns="http://www.w3.org/2000/svg" xmlns:xlink="http://www.w3.org/1999/xlink" x="0px" y="0px"
	 width="24px" height="24px" viewBox="0 0 24 24" enable-background="new 0 0 24 24" xml:space="preserve">
<path d="M8.171,18c-0.512,0-1.023-0.195-1.414-0.586L2.343,13l4.414-4.414c0.781-0.781,2.049-0.781,2.828,0
	c0.781,0.781,0.781,2.047,0,2.828L8,13l1.585,1.586c0.781,0.781,0.781,2.047,0,2.828C9.195,17.805,8.683,18,8.171,18z M15.829,18
	c-0.512,0-1.024-0.195-1.414-0.586c-0.781-0.781-0.781-2.047,0-2.828L16,13l-1.585-1.586c-0.781-0.781-0.781-2.047,0-2.828
	c0.779-0.781,2.047-0.781,2.828,0L21.657,13l-4.414,4.414C16.853,17.805,16.341,18,15.829,18z"/>
</svg>
